<svg width="224" height="46" viewBox="0 0 224 46" fill="none" xmlns="http://www.w3.org/2000/svg">
<g clip-path="url(#clip0_223_1710)">
<path d="M5.49096 40.652C4.78358 39.9146 4.3107 38.9841 4.1321 37.978C3.9535 36.972 4.0772 35.9356 4.48755 34.9998C4.8979 34.064 5.57649 33.2709 6.43753 32.7208C7.29856 32.1706 8.30338 31.8881 9.32496 31.909C10.6738 31.9443 11.9559 32.5031 12.9 33.4671C13.844 34.4311 14.3759 35.7247 14.383 37.074V37.087C14.3592 38.4589 13.7987 39.7669 12.8217 40.7304C11.8447 41.6939 10.5291 42.2362 9.15696 42.241H9.11096C8.43249 42.2285 7.76321 42.0817 7.14185 41.8089C6.52048 41.5362 5.95937 41.1429 5.49096 40.652ZM35.811 36.9679C35.8398 35.5984 36.4112 34.2964 37.3996 33.348C38.388 32.3996 39.7124 31.8823 41.082 31.91C42.4405 31.9476 43.7295 32.519 44.6698 33.5004C45.61 34.4818 46.1257 35.794 46.1052 37.153C46.0847 38.5119 45.5296 39.808 44.5602 40.7606C43.5907 41.7131 42.285 42.2453 40.926 42.242H40.869C39.4993 42.2123 38.1973 41.6404 37.2488 40.6518C36.3004 39.6632 35.7829 38.3387 35.81 36.969M29.091 16.889C30.8879 15.9928 32.3442 14.5361 33.24 12.739L33.722 11.766L34.616 12.379C36.7996 13.8748 38.5891 15.8766 39.832 18.2135C41.0749 20.5504 41.7343 23.1532 41.754 25.8C41.7569 26.3085 41.7295 26.8167 41.672 27.322L41.572 28.151L40.739 28.158C38.3776 28.1888 36.121 29.1377 34.4472 30.8036C32.7733 32.4696 31.8139 34.7217 31.772 37.083C31.7728 37.9814 31.9128 38.8743 32.187 39.7299L32.45 40.5499L31.657 40.8849C29.552 41.7714 27.291 42.2281 25.007 42.2281C22.7229 42.2281 20.4619 41.7714 18.357 40.8849L17.565 40.5499L17.826 39.7309C18.1005 38.8714 18.2395 37.9743 18.238 37.0719C18.2059 34.7092 17.2496 32.4529 15.574 30.7867C13.8985 29.1205 11.6369 28.1768 9.27396 28.158H8.40796L8.33796 27.294C8.29896 26.815 8.25996 26.318 8.25996 25.811C8.2775 23.163 8.93515 20.5585 10.1768 18.2197C11.4185 15.8809 13.2074 13.877 15.391 12.379L16.285 11.766L16.767 12.739C17.3018 13.8218 18.0452 14.7884 18.9544 15.5834C19.8636 16.3784 20.9208 16.9861 22.0654 17.3716C23.21 17.7572 24.4194 17.913 25.6243 17.8302C26.8292 17.7473 28.0059 17.4275 29.087 16.889M19.75 8.91595C19.766 7.54198 20.3222 6.22953 21.2983 5.26242C22.2744 4.29531 23.5919 3.75127 24.966 3.74795H25.028C26.4006 3.75166 27.717 4.29317 28.695 5.25633C29.6729 6.2195 30.2344 7.52757 30.259 8.89995V8.91495C30.2686 9.61082 30.1398 10.3017 29.8801 10.9473C29.6205 11.593 29.2351 12.1807 28.7464 12.6761C28.2577 13.1716 27.6755 13.5651 27.0334 13.8336C26.3914 14.1021 25.7024 14.2404 25.0065 14.2404C24.3105 14.2404 23.6215 14.1021 22.9795 13.8336C22.3375 13.5651 21.7552 13.1716 21.2665 12.6761C20.7778 12.1807 20.3924 11.593 20.1328 10.9473C19.8731 10.3017 19.7444 9.61082 19.754 8.91495M23.08 0.203952C21.3562 0.576294 19.7763 1.43763 18.5295 2.68479C17.2827 3.93196 16.4218 5.51209 16.05 7.23595L15.956 7.67795L15.556 7.87795C12.2251 9.55105 9.41994 12.1101 7.44896 15.2739C5.47798 18.4377 4.41745 22.0836 4.38396 25.811C4.38602 26.766 4.45284 27.7199 4.58396 28.666L4.66696 29.266L4.15096 29.591C2.50208 30.6243 1.23844 32.1709 0.554461 33.9927C-0.129516 35.8144 -0.195927 37.8105 0.365445 39.6737C0.926816 41.5369 2.08487 43.164 3.66141 44.3047C5.23796 45.4454 7.14565 46.0365 9.09096 45.9869H9.13796C11.2095 45.9846 13.2199 45.2847 14.845 44L15.308 43.63L15.842 43.889C18.6974 45.2803 21.8321 46.0034 25.0085 46.0034C28.1848 46.0034 31.3195 45.2803 34.175 43.889L34.71 43.63L35.173 44C36.7953 45.293 38.8094 45.9952 40.884 45.991C43.2752 46.0147 45.5781 45.0886 47.2873 43.4161C48.9964 41.7435 49.972 39.4611 50 37.07C49.9985 35.5745 49.6165 34.1039 48.89 32.7968C48.1634 31.4896 47.1162 30.3888 45.847 29.598L45.368 29.298L45.617 25.786C45.585 22.0637 44.5257 18.4226 42.556 15.2641C40.5862 12.1056 37.7825 9.55234 34.454 7.88595L34.054 7.68595L33.96 7.24495C33.7094 6.06745 33.229 4.95096 32.5462 3.95947C31.8635 2.96797 30.9917 2.12095 29.981 1.46696C28.9703 0.812962 27.8405 0.364846 26.6562 0.148287C25.472 -0.068272 24.2567 -0.050016 23.08 0.203952Z" fill="#E51D35"/>
<path d="M117.532 12.3049H121.004L118.024 16.8848H115.224L117.532 12.3049ZM114.705 34.0049H118.454V18.7108H114.705V34.0049ZM109.42 13.9169H105.671V18.6749H102.752V21.8269H105.671V33.9338H109.42V21.8218H112.37V18.6698H109.42V13.9169ZM76.634 18.1288C75.6822 18.0897 74.7362 18.2951 73.8863 18.7254C73.0364 19.1557 72.3109 19.7965 71.779 20.5868L71.472 18.5979H68V33.9629H71.749V25.6879C71.749 23.1989 73.162 21.5819 75.467 21.5819C77.403 21.5819 78.667 22.8259 78.667 25.4079V33.9629H82.416V24.5059C82.416 20.5239 80.449 18.1288 76.639 18.1288M101.439 26.0459C101.439 30.7179 98.028 33.9328 93.327 33.9328C88.626 33.9328 85.215 30.7169 85.215 26.0459C85.215 21.3749 88.626 18.1589 93.327 18.1589C98.028 18.1589 101.439 21.3739 101.439 26.0459ZM97.69 26.0459C97.7197 25.4544 97.6289 24.8631 97.423 24.3078C97.2171 23.7526 96.9005 23.2449 96.4924 22.8158C96.0843 22.3867 95.5932 22.045 95.049 21.8116C94.5047 21.5781 93.9187 21.4577 93.3265 21.4577C92.7343 21.4577 92.1483 21.5781 91.604 21.8116C91.0598 22.045 90.5687 22.3867 90.1606 22.8158C89.7525 23.2449 89.4359 23.7526 89.23 24.3078C89.0241 24.8631 88.9333 25.4544 88.963 26.0459C88.9333 26.6373 89.0241 27.2286 89.23 27.7839C89.4359 28.3391 89.7525 28.8468 90.1606 29.2759C90.5687 29.705 91.0598 30.0467 91.604 30.2801C92.1483 30.5136 92.7343 30.634 93.3265 30.634C93.9187 30.634 94.5047 30.5136 95.049 30.2801C95.5932 30.0467 96.0843 29.705 96.4924 29.2759C96.9005 28.8468 97.2171 28.3391 97.423 27.7839C97.6289 27.2286 97.7197 26.6373 97.69 26.0459ZM218.29 18.1288C217.335 18.0869 216.385 18.2845 215.527 18.7037C214.668 19.1229 213.928 19.7503 213.374 20.5289V10.9979H209.595V33.9629H213.344V25.3788C213.302 24.8696 213.368 24.3572 213.54 23.8759C213.711 23.3946 213.984 22.9554 214.339 22.5878C214.694 22.2202 215.123 21.9327 215.598 21.7443C216.073 21.556 216.583 21.4713 217.093 21.4958C218.993 21.4958 220.258 22.7099 220.258 25.2269V33.9618H224.007V24.3479C224.007 20.4649 222.041 18.1288 218.292 18.1288M181.75 26.4979C185.161 23.6159 186.881 21.2799 186.881 18.1859C186.881 13.6959 183.9 10.9958 179.107 10.9958C174.344 10.9958 171.207 14.1509 171.179 19.0049H175.079C175.11 16.1529 176.646 14.4548 179.104 14.4548C181.47 14.4548 182.853 15.8808 182.853 18.3988C182.853 20.5218 181.839 21.9789 178.797 24.5269L171.453 30.6549V33.9979L187.032 33.9678V29.9289H177.694L181.75 26.4979ZM203.782 25.9519H206.517V29.3519H203.782V33.9618H200.064V29.3519H188.664V25.9519L198.835 11.3979H203.782V25.9519ZM200.064 15.5809L192.843 25.9559H200.064V15.5809ZM159.994 24.4688V33.9629H156.756L156.43 31.3559C155.785 32.9029 153.73 33.9649 151.36 33.9649C148.133 33.9649 146.167 32.1138 146.167 29.2929C146.167 26.5329 148.195 24.8028 151.79 24.5299L156.338 24.1959V23.8619C156.338 21.8299 155.109 21.0108 153.204 21.0108C150.992 21.0108 149.762 21.9209 149.762 23.4989H146.562C146.562 20.2529 149.262 18.1299 153.384 18.1299C157.471 18.1299 159.99 20.3139 159.99 24.4699M156.364 26.7149L153.199 26.9579C150.864 27.1699 149.972 27.9289 149.972 29.1418C149.972 30.5068 150.894 31.1739 152.584 31.1739C153.083 31.2229 153.587 31.1625 154.06 30.9969C154.534 30.8313 154.965 30.5644 155.325 30.215C155.685 29.8655 155.964 29.4418 156.143 28.9734C156.323 28.505 156.398 28.0032 156.363 27.5028L156.364 26.7149ZM141.099 11.1208C140.799 11.1149 140.501 11.1687 140.223 11.2792C139.944 11.3897 139.69 11.5547 139.476 11.7645C139.262 11.9743 139.092 12.2247 138.975 12.501C138.859 12.7773 138.799 13.0741 138.799 13.3739C138.799 13.977 139.039 14.5554 139.465 14.9818C139.892 15.4083 140.47 15.6479 141.073 15.6479C141.676 15.6479 142.255 15.4083 142.681 14.9818C143.107 14.5554 143.347 13.977 143.347 13.3739C143.349 13.0784 143.292 12.7855 143.18 12.5121C143.068 12.2387 142.903 11.9901 142.694 11.7808C142.486 11.5714 142.238 11.4053 141.965 11.292C141.692 11.1787 141.399 11.1206 141.104 11.1208M139.23 33.9618H142.979V18.7149H139.23V33.9618ZM129.06 30.6259C126.66 30.6259 125.188 28.8658 125.188 26.0448C125.188 23.2238 126.788 21.4338 129.182 21.4338C129.975 21.3695 130.765 21.5956 131.403 22.07C132.042 22.5445 132.487 23.235 132.654 24.0129H136.394C135.994 20.4029 133.167 18.1278 129.019 18.1278C124.533 18.1278 121.429 21.4038 121.429 26.0448C121.429 30.8078 124.441 33.9629 129.049 33.9629C133.013 33.9629 135.963 31.5629 136.423 28.0779H132.644C132.452 28.865 131.981 29.5563 131.32 30.0244C130.659 30.4925 129.85 30.7061 129.044 30.6259" fill="white"/>
</g>
<defs>
<clipPath id="clip0_223_1710">
<rect width="224" height="46" fill="white"/>
</clipPath>
</defs>
</svg>
